# xmcd
#
# Track frame offsets: 
#        150
#        20475
#        35339
#        53735
#        85012
#        106012
#        126524
#        149107
#        162827
#        178626
#        203003
#        227268
#        246312
#        262285
#        271665
#        292928
#        319227
#        340445
#
# Disc length: 4776 seconds
#
# Revision: 0
# Processed by: cddbd v1.5.2PL0 Copyright (c) Steve Scherf et al.
# Submitted via: ExactAudioCopy v1.3
#
DISCID=0312a612
DTITLE=Various Artist - Akella Presents - vol. 131 - Electric Blues  
DTITLE=CD2
DYEAR=2018
DGENRE=Blues
TTITLE0=Dennis Jones - You Don't Know A Thing About Love
TTITLE1=Freddie and the Screamers - Heart Of Stone
TTITLE2=Don Ray Band - I Can't Find My Angel
TTITLE3=Bobby Mack - Pourin' Rain
TTITLE4=Freddie Pate - Nothing Takes The Place Of You
TTITLE5=Albert Castiglia - Drowning At The Bottom
TTITLE6=Johnny Nicholas - Workin In The Garden
TTITLE7=Lightnin Rod and The Thunderbolts - Low Down Funky Blues
TTITLE8=Breezy Rodio - Not Going To Worry
TTITLE9=Coyote Kings - Sweet Soul Music
TTITLE10=Kid Ramos - I Can't Wait Baby
TTITLE11=Big Shoes - Too Early For The Blues
TTITLE12=Fred Chapellier - Thank You Lord
TTITLE13=Ed Maly - Strong And Weak
TTITLE14=Reverend Raven and The Chain Smoking Altar Boys - She's Movin' 
TTITLE14=On
TTITLE15=Randy Morrison Band - Sensible Shoes
TTITLE16=Rock Bottom - Big Mamoo
TTITLE17=Otis Clay - When Hearts Grow Cold
EXTD=
EXTT0=
EXTT1=
EXTT2=
EXTT3=
EXTT4=
EXTT5=
EXTT6=
EXTT7=
EXTT8=
EXTT9=
EXTT10=
EXTT11=
EXTT12=
EXTT13=
EXTT14=
EXTT15=
EXTT16=
EXTT17=
PLAYORDER=
